<?xml version="1.0" standalone="no"?><!DOCTYPE svg PUBLIC "-//W3C//DTD SVG 1.1//EN" "http://www.w3.org/Graphics/SVG/1.1/DTD/svg11.dtd"><svg t="1720668279278" class="icon" viewBox="0 0 1264 1024" version="1.1" xmlns="http://www.w3.org/2000/svg" p-id="22603" width="39.5" height="32" xmlns:xlink="http://www.w3.org/1999/xlink"><path d="M709.75393 659.84413s-51.433115 107.22373-90.02717 198.418088c59.214364 38.361555 73.064986 27.312182 73.064986 27.312183l86.058734-213.51371-69.09655-12.215623z" fill="#0EB381" p-id="22604"></path><path d="M679.330186 914.28627h-1.167187c-2.17875-0.077812-4.357499-0.6225-6.380624-1.478437l-114.538104-50.88749c-5.913749-2.646562-10.349061-7.625624-12.52781-14.161873-2.878124-8.559373-1.634062-19.686559 3.1125-28.323744 46.764366-85.124984 53.923115-101.387794 85.903109-193.126839 2.490937-7.158749 8.949373-17.118747 19.141871-21.398434 6.380624-2.645625 13.072498-2.645625 18.986246 0.155625 29.33437 13.771872 48.943116 22.254371 71.664362 32.136557 12.76031 5.523749 26.066245 11.281873 42.48468 18.596246 5.913749 2.645625 10.349061 7.625624 12.52781 14.161872 2.878124 8.559373 1.634062 19.686559-3.1125 28.322808-46.687491 85.124984-53.923115 101.388731-85.826234 193.127776-4.590937 13.228123-17.506872 22.875933-30.268119 22.875933z m-3.268124-34.547806zM580.665829 833.440973l96.562482 42.951554c31.124994-89.326858 39.918743-109.169042 85.437172-192.037464-12.371248-5.446874-22.953746-10.037811-33.224994-14.550935-20.542496-8.870623-38.516243-16.729684-63.337488-28.245932-31.202807 89.172171-39.995618 108.935605-85.437172 191.882777z" fill="#333333" p-id="22605"></path><path d="M590.236765 340.273877s-67.22905-15.095622-71.587487 10.115623c-4.356562 25.28812-30.345932 244.248705-12.293435 327.040252 17.040934 78.356235 87.537171 11.127185 87.537171 11.127185l-3.656249-348.28306z" fill="#0EB381" p-id="22606"></path><path d="M598.406139 716.957557H436.636794c-7.469061 0-14.472185-3.268124-19.763434-9.103123-6.224999-7.003124-9.493123-17.040934-8.481561-26.30062 10.426873-96.641232 10.426873-242.537767 0-339.178062-1.0125-9.337498 2.256562-19.453121 8.637186-26.456245 5.291249-5.835936 12.372185-9.026248 19.841246-8.870624 41.94093 0.700312 69.563425 0.466875 101.621231 0.233438 17.974684-0.155625 36.571868-0.234375 59.836864-0.234375 7.469999 0 14.473122 3.269062 19.764371 9.104998 6.224999 7.003124 9.493123 17.039997 8.481561 26.299683-10.426873 96.641232-10.426873 242.537767 0 339.178062 1.634062 14.939997-8.481561 30.191244-23.10937 34.626556-1.55625 0.466875-3.269062 0.700312-5.058749 0.700312z m-7.079999-31.513119s0 0.077812 0 0c0 0.077812 0 0 0 0z m-147.530598 0z m0.389063-3.968437h146.752472c-10.115623-97.574982-10.115623-241.448393 0-338.945562-19.687496 0-36.104993 0.155625-52.056552 0.234375-30.268119 0.2325-56.568739 0.388125-94.618108-0.156562 10.037811 97.652794 10.037811 241.37058-0.077812 338.867749z m147.140597-342.913998z m-147.607472-0.077813c0.077812 0 0.077812 0 0 0 0.077812 0 0.077812 0 0 0z" fill="#333333" p-id="22607"></path><path d="M510.557717 777.415983s-4.434374 118.818728-2.023124 217.872147c89.949358 10.97156 100.454044-4.746562 100.454044-4.746561L598.406139 760.531612l-87.848422 16.884371z" fill="#0EB381" p-id="22608"></path><path d="M598.406139 1024H436.636794c-7.469061 0-14.472185-3.268124-19.763434-9.103123-6.224999-7.003124-9.493123-17.040934-8.481561-26.30062 10.426873-96.329982 10.426873-114.071229 0-210.479024-1.0125-9.337498 2.256562-19.453121 8.637186-26.456245 5.291249-5.834999 12.372185-9.025311 19.841246-8.869686 41.94093 0.700312 69.563425 0.466875 101.621231 0.233438 17.974684-0.155625 36.571868-0.234375 59.836864-0.234375 7.469999 0 14.473122 3.269062 19.764371 9.104061 6.224999 7.003124 9.493123 17.040934 8.481561 26.30062-10.426873 96.329982-10.426873 114.071229 0 210.479023 1.634062 14.939997-8.481561 30.190307-23.10937 34.625619-1.55625 0.466875-3.269062 0.700312-5.058749 0.700312z m-7.079999-31.513119z m-147.530598-0.077813c0 0.077812 0 0.077812 0 0 0 0.077812 0 0.077812 0 0z m0.389063-3.890624H590.859265c-10.115623-94.151232-10.115623-116.094353 0-210.245586-19.687496 0-36.104993 0.155625-52.056553 0.233438-30.190307 0.233437-56.568739 0.389062-94.618107-0.155625 10.115623 94.151232 10.115623 116.015603 0 210.167773z m147.140597-214.214023z m-147.607472-0.077812c0.077812 0 0.077812 0.077812 0 0 0.077812 0.077812 0.077812 0 0 0z" fill="#333333" p-id="22609"></path><path d="M510.557717 34.632059s-4.434374 118.81779-2.023124 217.87121c89.949358 10.97156 100.454044-4.746562 100.454044-4.746562L598.406139 17.74675l-87.848422 16.884372z" fill="#0EB381" p-id="22610"></path><path d="M598.406139 281.216076H436.636794c-7.469061 0-14.472185-3.269062-19.763434-9.104999-6.224999-7.003124-9.493123-17.039997-8.481561-26.299682 10.426873-96.329982 10.426873-114.071229 0-210.479023-1.0125-9.337498 2.256562-19.453121 8.637186-26.456246 5.291249-5.835936 12.372185-9.026248 19.841246-8.870623 41.94093 0.700312 69.563425 0.466875 101.621231 0.234375 17.974684-0.156562 36.571868-0.234375 59.836864-0.234375 7.469999 0 14.473122 3.268124 19.764371 9.104061 6.224999 7.003124 9.493123 17.040934 8.481561 26.30062-10.349061 96.329982-10.349061 114.071229 0.077813 210.478086 1.634062 14.940935-8.481561 30.191244-23.109371 34.626556a18.603747 18.603747 0 0 1-5.136561 0.700312z m-7.079999-31.514057s0 0.077812 0 0c0 0.077812 0 0 0 0z m-147.530598 0z m0.389063-3.968437H590.859265c-10.115623-94.151232-10.115623-116.094353 0-210.245585-19.687496 0-36.104993 0.155625-52.056553 0.233437-30.190307 0.233437-56.568739 0.389062-94.618107-0.155625 10.115623 94.151232 10.115623 116.094353 0 210.167773zM591.325202 31.51956s0 0.077812 0 0c0 0.077812 0 0.077812 0 0z m-147.607472 0c0.077812 0 0.077812 0 0 0 0.077812 0 0.077812 0 0 0zM355.790559 281.216076s-12.371248-107.458105-200.673713 139.514974C392.051177 306.659821 355.790559 295.610448 355.790559 281.215138z" fill="#333333" p-id="22611"></path><path d="M366.140557 310.239195s-72.598111-80.145923-81.857797 230.242458c126.131227-230.553707 90.261546-218.493709 81.857797-230.242458z" fill="#333333" p-id="22612"></path><path d="M336.416187 269.465453s80.846235-71.819049-229.464332-84.191234c229.387457 128.465601 217.636834 92.439358 229.464332 84.191234z" fill="#333333" p-id="22613"></path><path d="M883.506398 273.511702s-80.767485 174.997467-136.402475 304.631193c57.346864 42.562492 73.842174 25.443745 73.842174 25.443746l125.665289-302.684944-63.104988-27.389995z" fill="#0EB381" p-id="22614"></path><path d="M804.44985 638.446634c-2.489062 0-4.901249-0.544687-7.235623-1.556249l-114.538104-50.888428c-5.446874-2.412187-9.648748-7.080936-11.671873-12.994686-4.279687-12.21656 1.011562-27.85687 4.746562-35.171243 63.883113-123.563414 74.231236-146.829348 123.175289-277.006823 2.956874-7.781249 11.126248-22.332183 23.187183-27.23437 5.913749-2.412187 12.138748-2.256562 17.662497 0.389062 29.10187 14.006247 48.710616 22.409996 71.431862 32.135619 12.838123 5.524686 26.144058 11.204998 42.640304 18.597184 5.446874 2.412187 9.648748 7.080936 11.671873 12.993748 4.278749 12.217498-1.0125 27.85687-4.746561 35.171243-63.883113 123.564352-74.232174 146.830285-123.17529 277.007761-4.824374 12.83906-16.729684 27.23437-31.591869 28.556245h-1.55625z m-98.508731-80.924047l96.796857 43.029367c0.623437-0.93375 1.168125-2.023125 1.634999-3.1125 49.643428-132.044975 60.147176-155.622159 124.964039-280.897447 0.544687-1.0125 0.93375-2.17875 1.322813-3.268125-12.372185-5.446874-23.031558-10.037811-33.380619-14.473122-20.620309-8.870623-38.74968-16.651872-63.571863-28.401557a20.545309 20.545309 0 0 0-1.400625 2.956874c-49.643428 132.045913-60.148114 155.622159-124.964977 280.898385-0.54375 0.93375-1.011562 2.100937-1.400624 3.268125zM855.027966 692.914437s-93.763108 23.731871 147.607472 161.224657C873.312962 657.743193 867.787338 691.201624 855.027966 692.914437z" fill="#333333" p-id="22615"></path><path d="M871.6789 618.215388s-75.476236 102.866231 285.567135 40.150305c-296.460882-91.272171-273.973074-52.600303-285.567135-40.150305z" fill="#333333" p-id="22616"></path></svg>