<svg xmlns="http://www.w3.org/2000/svg" width="39.5" height="32" class="icon" viewBox="0 0 1264 1024"><path fill="#0EB381" d="M709.754 659.844s-51.433 107.224-90.027 198.418c59.214 38.362 73.065 27.312 73.065 27.312l86.058-213.513-69.096-12.216z"/><path fill="#333" d="M679.33 914.286h-1.167c-2.179-.078-4.357-.622-6.38-1.478l-114.54-50.888c-5.913-2.646-10.349-7.625-12.528-14.162-2.878-8.559-1.634-19.686 3.113-28.323 46.764-85.125 53.923-101.388 85.903-193.127 2.491-7.159 8.95-17.119 19.142-21.399 6.38-2.645 13.072-2.645 18.986.156 29.335 13.772 48.943 22.254 71.665 32.137 12.76 5.523 26.066 11.282 42.484 18.596 5.914 2.646 10.35 7.626 12.528 14.162 2.878 8.56 1.634 19.686-3.112 28.323-46.688 85.125-53.924 101.388-85.827 193.127-4.59 13.228-17.507 22.876-30.268 22.876zm-95.396-46.297 96.562 42.952c31.125-89.327 39.92-109.17 85.437-192.038-12.37-5.447-22.953-10.038-33.225-14.55-20.542-8.871-38.516-16.73-63.337-28.247-31.203 89.172-39.996 108.936-85.437 191.883z"/><path fill="#0EB381" d="M590.237 340.274s-67.23-15.096-71.588 10.116c-4.356 25.288-30.346 244.248-12.293 327.04 17.04 78.356 87.537 11.127 87.537 11.127l-3.656-348.283z"/><path fill="#333" d="M598.406 716.958h-161.77c-7.468 0-14.471-3.269-19.763-9.104-6.225-7.003-9.493-17.04-8.481-26.3 10.427-96.641 10.427-242.538 0-339.178-1.013-9.338 2.256-19.453 8.637-26.456 5.291-5.836 12.372-9.027 19.841-8.871 41.941.7 69.564.467 101.621.233 17.975-.155 36.572-.234 59.837-.234 7.47 0 14.473 3.269 19.765 9.105 6.225 7.003 9.493 17.04 8.481 26.3-10.427 96.64-10.427 242.537 0 339.178 1.634 14.94-8.481 30.19-23.11 34.626-1.555.467-3.268.7-5.058.7zm-7.08-31.514s0 .078 0 0c0 .078 0 0 0 0m.389-3.968h146.752c-10.116-97.575-10.116-241.448 0-338.946-19.687 0-36.105.156-52.056.235-30.269.232-56.57.388-94.619-.157 10.038 97.653 10.038 241.37-.077 338.868zm-147.607-.078c.078 0 .078 0 0 0 .078 0 .078 0 0 0"/><path fill="#0EB381" d="M510.558 777.416s-4.435 118.819-2.023 217.872c89.949 10.972 100.454-4.746 100.454-4.746l-10.583-230.01-87.848 16.884z"/><path fill="#333" d="M598.406 1024h-161.77c-7.468 0-14.471-3.268-19.763-9.103-6.225-7.003-9.493-17.041-8.481-26.3 10.427-96.33 10.427-114.072 0-210.48-1.013-9.337 2.256-19.453 8.637-26.456 5.291-5.835 12.372-9.025 19.841-8.87 41.941.7 69.564.467 101.621.234 17.975-.156 36.572-.235 59.837-.235 7.47 0 14.473 3.27 19.765 9.104 6.225 7.004 9.493 17.041 8.481 26.301-10.427 96.33-10.427 114.071 0 210.48 1.634 14.94-8.481 30.19-23.11 34.625-1.555.467-3.268.7-5.058.7zm-147.53-.078c0 .078 0 .078 0 0 0 .078 0 .078 0 0m.389-3.89h146.674c-10.115-94.152-10.115-116.095 0-210.246-19.687 0-36.105.155-52.056.233-30.19.234-56.569.39-94.618-.155 10.115 94.15 10.115 116.015 0 210.167zm-147.607-.077c.078 0 .078.077 0 0 .078.077.078 0 0 0"/><path fill="#0EB381" d="M510.558 34.632s-4.435 118.818-2.023 217.871c89.949 10.972 100.454-4.746 100.454-4.746l-10.583-230.01-87.848 16.884z"/><path fill="#333" d="M598.406 281.216h-161.77c-7.468 0-14.471-3.269-19.763-9.105-6.225-7.003-9.493-17.04-8.481-26.3 10.427-96.33 10.427-114.07 0-210.479-1.013-9.337 2.256-19.453 8.637-26.456C422.32 3.04 429.401-.15 436.87.006c41.941.7 69.564.466 101.621.234 17.975-.157 36.572-.234 59.837-.234 7.47 0 14.473 3.268 19.765 9.104 6.225 7.003 9.493 17.04 8.481 26.3-10.349 96.33-10.349 114.071.078 210.478 1.634 14.941-8.481 30.192-23.11 34.627a18.604 18.604 0 0 1-5.136.7zm-7.08-31.514s0 .078 0 0c0 .078 0 0 0 0m.389-3.968h146.674c-10.115-94.152-10.115-116.095 0-210.246-19.687 0-36.105.156-52.056.233-30.19.234-56.569.39-94.618-.155 10.115 94.151 10.115 116.094 0 210.168zM591.325 31.52s0 .077 0 0c0 .077 0 .077 0 0m-147.607 0c.078 0 .078 0 0 0 .078 0 .078 0 0 0M355.79 281.216s-12.372-107.458-200.674 139.515C392.05 306.66 355.79 295.611 355.79 281.215z"/><path fill="#333" d="M366.14 310.24s-72.598-80.147-81.857 230.242c126.131-230.554 90.261-218.494 81.858-230.243z"/><path fill="#333" d="M336.416 269.465s80.846-71.819-229.464-84.19c229.387 128.465 217.637 92.439 229.464 84.19"/><path fill="#0EB381" d="M883.506 273.512s-80.767 174.997-136.402 304.63c57.347 42.563 73.842 25.445 73.842 25.445l125.665-302.685-63.105-27.39z"/><path fill="#333" d="M804.45 638.447c-2.49 0-4.901-.545-7.236-1.557l-114.538-50.888c-5.447-2.412-9.649-7.081-11.672-12.995-4.28-12.216 1.012-27.857 4.747-35.171 63.883-123.563 74.231-146.83 123.175-277.007 2.957-7.781 11.126-22.332 23.187-27.234 5.914-2.412 12.139-2.257 17.663.389 29.102 14.006 48.71 22.41 71.432 32.136 12.838 5.524 26.144 11.205 42.64 18.597 5.447 2.412 9.649 7.08 11.672 12.993 4.279 12.218-1.013 27.857-4.747 35.172-63.883 123.564-74.232 146.83-123.175 277.007-4.824 12.84-16.73 27.235-31.592 28.557h-1.556zm-98.509-80.924 96.797 43.029c.623-.934 1.168-2.023 1.635-3.113 49.643-132.045 60.147-155.622 124.964-280.897.545-1.012.934-2.179 1.323-3.268-12.372-5.447-23.032-10.038-33.38-14.473-20.621-8.87-38.75-16.652-63.573-28.402a20.545 20.545 0 0 0-1.4 2.957c-49.644 132.046-60.148 155.622-124.965 280.898-.544.934-1.012 2.101-1.4 3.269zm149.087 135.391s-93.763 23.732 147.607 161.225C873.313 657.743 867.787 691.202 855.028 692.914"/><path fill="#333" d="M871.679 618.215s-75.476 102.867 285.567 40.15c-296.46-91.271-273.973-52.6-285.567-40.15z"/></svg>